# xmcd
#
# Track frame offsets: 
#        150
#        16982
#        41366
#        60254
#        77233
#        89258
#        112433
#        141059
#        153801
#        166063
#        182017
#        194320
#        210722
#
# Disc length: 3024 seconds
#
# Revision: 0
# Processed by: cddbd v1.5.2PL0 Copyright (c) Steve Scherf et al.
# Submitted via: ExactAudioCopyFreeDBPlugin 1.0
#
DISCID=a20bce0d
DTITLE=Raphael Wressing and Igor Prado - The Soul Connection
DYEAR=2016
DGENRE=Blues
TTITLE0=Trying To Live My Life Without You
TTITLE1=Young Girl
TTITLE2=Suffering With The Blues
TTITLE3=Turning Point
TTITLE4=No-La-Fun-Ky
TTITLE5=Home At Last
TTITLE6=Turnip Greens
TTITLE7=My Love Is
TTITLE8=The Face Slap Swing No. 05
TTITLE9=Grazing In The Grass'
TTITLE10=Don't Cry No More
TTITLE11=Heartbreak
TTITLE12=Why Don't You Haul Off And Love Me
EXTD=
EXTT0=
EXTT1=
EXTT2=
EXTT3=
EXTT4=
EXTT5=
EXTT6=
EXTT7=
EXTT8=
EXTT9=
EXTT10=
EXTT11=
EXTT12=
PLAYORDER=
